<svg alt="Atlas HXM logo" class="g2_logo" width="160" height="53" viewBox="0 0 96 32" fill="none" xmlns="http://www.w3.org/2000/svg"><g clip-path="url(#clip0_105_33)"><path fill-rule="evenodd" clip-rule="evenodd" d="M20.0097 0C21.5525 0 22.8031 1.2604 22.8031 2.82066C22.8031 4.38092 21.5549 5.64132 20.0097 5.64132C18.4646 5.64132 17.2164 4.38092 17.2164 2.82066C17.2116 1.26284 18.4646 0 20.0097 0Z" fill="#BA33CA"/><path fill-rule="evenodd" clip-rule="evenodd" d="M3.40901 0C4.95175 0 6.20236 1.2604 6.20236 2.82066C6.20236 4.38092 4.95417 5.64132 3.40901 5.64132C1.86386 5.64132 0.615662 4.37849 0.615662 2.82066C0.615662 1.26284 1.86386 0 3.40901 0Z" fill="#0559FA"/><path fill-rule="evenodd" clip-rule="evenodd" d="M11.7094 0C13.2521 0 14.5027 1.2604 14.5027 2.82066C14.5027 4.38092 13.2545 5.64132 11.7094 5.64132C10.1642 5.64132 8.91603 4.38092 8.91603 2.82066C8.9112 1.26284 10.1642 0 11.7094 0Z" fill="#5827E3"/><path d="M10.3598 8.87885C4.68617 8.87885 0 13.9156 0 20.4394C0 26.9633 4.68617 32 10.3646 32C13.269 32 15.3936 30.9907 16.8277 29.3305V31.3881H23.3343V9.49077L16.8229 11.5484C15.3912 9.88327 13.269 8.87885 10.3598 8.87885ZM11.6635 25.7809C8.66977 25.7809 6.50655 23.7233 6.50655 20.437C6.50655 17.1507 8.67701 15.0931 11.6635 15.0931C14.65 15.0931 16.8205 17.1507 16.8205 20.437C16.8205 23.7233 14.6548 25.7809 11.6635 25.7809ZM33.455 6.42388L26.9485 8.39127V23.5404C26.9485 29.6669 29.4183 32.2535 37.9191 31.3783V25.4298C35.0605 25.6029 33.4502 25.4298 33.4502 23.5453V15.7976H37.9263V9.49077H33.4574V6.42388H33.455ZM41.6105 31.3881H48.1171V2.07465L41.6105 4.04204V31.3905V31.3881ZM85.3336 15.8878C85.3336 15.098 86.0265 14.6591 87.154 14.6591C88.5857 14.6591 89.4524 15.449 90.0584 16.5875L95.6113 13.5645C93.7909 10.4537 90.6692 8.87885 87.1564 8.87885C82.6489 8.87885 78.6556 11.2899 78.6556 16.0609C78.6556 23.6355 89.322 22.3678 89.322 24.774C89.322 25.6492 88.5398 26.1319 86.9802 26.1319C85.0704 26.1319 83.8609 25.2128 83.2935 23.5478L77.6585 26.7877C79.351 30.3373 82.6441 31.9951 86.9802 31.9951C91.6663 31.9951 96.0024 29.8473 96.0024 24.813C96.0024 16.7167 85.336 18.3818 85.336 15.8878H85.3336ZM61.6541 8.87885C55.9732 8.87885 51.2895 13.9131 51.2895 20.4394C51.2895 26.9657 55.9757 32 61.6541 32C64.5585 32 66.6831 30.9907 68.1172 29.3305V31.3881H74.6237V9.49077L68.1172 11.5484C66.6855 9.88327 64.5633 8.87885 61.6541 8.87885ZM62.9578 25.7809C59.9641 25.7809 57.8009 23.7233 57.8009 20.437C57.8009 17.1507 59.9713 15.0931 62.9578 15.0931C65.9443 15.0931 68.1148 17.1507 68.1148 20.437C68.1148 23.7233 65.9492 25.7809 62.9578 25.7809Z" fill="currentColor"/></g><defs><clipPath id="clip0_105_33"><rect width="96" height="32" fill="white"/></clipPath></defs></svg>